<svg xmlns="http://www.w3.org/2000/svg" xmlns:xlink="http://www.w3.org/1999/xlink" version="1.1" width="500" height="500" viewBox="0 0 500 500" xml:space="preserve">
<desc>Created with Fabric.js 4.4.0</desc>
<defs>
</defs>
<defs>
<mask id="CLIPPATH_10">
<g transform="matrix(1 0 0 1 0 0)">
<g style="">
		<g transform="matrix(1 0 0 1 0 0)">
<rect style="stroke: none; stroke-width: 1; stroke-dasharray: none; stroke-linecap: butt; stroke-dashoffset: 0; stroke-linejoin: miter; stroke-miterlimit: 4; fill: rgb(255,255,255); fill-rule: nonzero; opacity: 1;" x="-183.5" y="-275" rx="0" ry="0" width="367" height="550"/>
</g>
		<g transform="matrix(1 0 0 1 -21.5675 4.495)">
<path style="stroke: rgb(0,0,0); stroke-width: 10; stroke-dasharray: none; stroke-linecap: round; stroke-dashoffset: 0; stroke-linejoin: round; stroke-miterlimit: 10; fill: none; fill-rule: nonzero; opacity: 1;" transform=" translate(-161.9325, -279.495)" d="M 190 241.99 Q 190 242 190 243.5 Q 190 245 190 248.5 Q 190 252 193 260.5 Q 196 269 199 277.5 Q 202 286 204.5 293 Q 207 300 207.5 302 Q 208 304 208.5 308 Q 209 312 209.5 313.5 Q 210 315 210 316 Q 210 317 210.5 317 Q 211 317 210.5 315.5 Q 210 314 205.5 306 Q 201 298 196.5 290 Q 192 282 186.5 275 Q 181 268 175.5 262 Q 170 256 167 253 Q 164 250 162.5 249 Q 161 248 160.5 248 Q 160 248 158.5 252 Q 157 256 156 262.5 Q 155 269 154 276.5 Q 153 284 152 289 Q 151 294 150 295 Q 149 296 148 296 Q 147 296 146 296 Q 145 296 143.5 294.5 Q 142 293 141 291.5 Q 140 290 138.5 288.5 Q 137 287 134.5 285.5 Q 132 284 129 284 Q 126 284 123 284 Q 120 284 118 286 Q 116 288 115 289.5 Q 114 291 113.5 293 L 112.99 295.01" stroke-linecap="round"/>
</g>
		<g transform="matrix(1 0 0 1 115.505 72.5)">
<path style="stroke: rgb(0,0,0); stroke-width: 10; stroke-dasharray: none; stroke-linecap: round; stroke-dashoffset: 0; stroke-linejoin: round; stroke-miterlimit: 10; fill: none; fill-rule: nonzero; opacity: 1;" transform=" translate(-299.005, -347.5)" d="M 334.01 325.99 Q 334 326 330 327 Q 326 328 319 331.5 Q 312 335 303.5 338 Q 295 341 286.5 344 Q 278 347 273 350 Q 268 353 266 354.5 Q 264 356 264 356.5 Q 264 357 267 358.5 Q 270 360 274 360 Q 278 360 285 359.5 Q 292 359 296.5 357 Q 301 355 301 356 Q 301 357 301 360.5 Q 301 364 301 366.5 L 301 369.01" stroke-linecap="round"/>
</g>
</g>
</g>

</mask>
</defs>
<g transform="matrix(1 0 0 1 183.5 275)" mask="url(#CLIPPATH_10)">
	<image style="stroke: none; stroke-width: 0; stroke-dasharray: none; stroke-linecap: butt; stroke-dashoffset: 0; stroke-linejoin: miter; stroke-miterlimit: 4; fill: rgb(0,0,0); fill-rule: nonzero; opacity: 0.414680132836;" xlink:href="https://ip.webmasterapi.com/api/imageproxy/http://fabricjs.com/assets/mononoke.jpg" x="-183.5" y="-275" width="367" height="550"/>
</g>
<defs>
<mask id="CLIPPATH_11">
<g transform="matrix(1 0 0 1 -33.995 -182.642091034823)">
<g style="">
		<g transform="matrix(1 0 0 1 33.995 182.642091034824)">
<rect style="stroke: none; stroke-width: 1; stroke-dasharray: none; stroke-linecap: butt; stroke-dashoffset: 0; stroke-linejoin: miter; stroke-miterlimit: 4; fill: rgb(255,255,255); fill-rule: nonzero; opacity: 1;" x="-25" y="-25" rx="0" ry="0" width="50" height="50"/>
</g>
		<g transform="matrix(1 0 0 1 0 -63.132091034824)">
<path style="stroke: rgb(0,0,0); stroke-width: 10; stroke-dasharray: none; stroke-linecap: round; stroke-dashoffset: 0; stroke-linejoin: round; stroke-miterlimit: 10; fill: none; fill-rule: nonzero; opacity: 1;" transform=" translate(-91.505, -166)" d="M 175.01 25.99 Q 175 26 174.5 28 Q 174 30 173.5 38.5 Q 173 47 169.5 61.5 Q 166 76 162 85 Q 158 94 154 100 Q 150 106 146.5 109.5 Q 143 113 142 114 Q 141 115 140.5 112 Q 140 109 138 100 Q 136 91 133.5 77.5 Q 131 64 127.5 56.5 Q 124 49 122 46.5 Q 120 44 119.5 44 Q 119 44 117.5 46.5 Q 116 49 114.5 55.5 Q 113 62 109.5 73.5 Q 106 85 103.5 96 Q 101 107 98.5 112.5 Q 96 118 94 118 Q 92 118 90 117.5 Q 88 117 83 112.5 Q 78 108 73.5 104.5 Q 69 101 66.5 99 Q 64 97 63 97 Q 62 97 61.5 97 Q 61 97 60.5 98 Q 60 99 58 106 Q 56 113 54.5 126.5 Q 53 140 52.5 155.5 Q 52 171 52 186.5 Q 52 202 55.5 211 Q 59 220 59.5 222 Q 60 224 60.5 224 Q 61 224 58.5 224 Q 56 224 49 227.5 Q 42 231 31 241.5 Q 20 252 14 262 Q 8 272 8 272.5 Q 8 273 8 273.5 Q 8 274 9 274.5 Q 10 275 13.5 275 Q 17 275 23 275 Q 29 275 31.5 275 Q 34 275 34.5 275 Q 35 275 37 274.5 Q 39 274 42 274 Q 45 274 52.5 274 Q 60 274 68 277 Q 76 280 80 281.5 Q 84 283 84 283.5 Q 84 284 81.5 286.5 Q 79 289 77.5 291.5 Q 76 294 74.5 295 Q 73 296 73 296.5 Q 73 297 73 298.5 Q 73 300 74.5 302 Q 76 304 77.5 304.5 Q 79 305 81.5 305 Q 84 305 84 305.5 L 84 306.01" stroke-linecap="round"/>
</g>
</g>
</g>

</mask>
</defs>
<g transform="matrix(1 0 0 1 125.5 307.227748959363)" mask="url(#CLIPPATH_11)">
<rect style="stroke: none; stroke-width: 1; stroke-dasharray: none; stroke-linecap: butt; stroke-dashoffset: 0; stroke-linejoin: miter; stroke-miterlimit: 4; fill: rgb(255,85,85); fill-rule: nonzero; opacity: 0.8;" x="-25" y="-25" rx="0" ry="0" width="50" height="50"/>
</g>
<g transform="matrix(1 0 0 1 295.5 270.5)">
<g style="">
		<g transform="matrix(1 0 0 1 -35 80)">
<polygon style="stroke: none; stroke-width: 1; stroke-dasharray: none; stroke-linecap: butt; stroke-dashoffset: 0; stroke-linejoin: miter; stroke-miterlimit: 4; fill: rgb(0,0,255); fill-rule: nonzero; opacity: 1;" points="-50 50,0 -50,50 50"/></g>
		<defs>
<mask id="CLIPPATH_12">
<g transform="matrix(1 0 0 1 -35.005 38.159593077891)">
<g style="">
		<g transform="matrix(1 0 0 1 35.005 -38.159593077891)">
<rect style="stroke: none; stroke-width: 1; stroke-dasharray: none; stroke-linecap: butt; stroke-dashoffset: 0; stroke-linejoin: miter; stroke-miterlimit: 4; fill: rgb(255,255,255); fill-rule: nonzero; opacity: 1;" x="-75" y="-75" rx="0" ry="0" width="150" height="150"/>
</g>
		<g transform="matrix(1 0 0 1 26.0675 -61.441454165653)">
<path style="stroke: rgb(0,0,0); stroke-width: 10; stroke-dasharray: none; stroke-linecap: round; stroke-dashoffset: 0; stroke-linejoin: round; stroke-miterlimit: 10; fill: none; fill-rule: nonzero; opacity: 1;" transform=" translate(-296.5625, -192.218138912238)" d="M 335.01 120.3900015258789 Q 335 120.4000015258789 334 120.4000015258789 Q 333 120.4000015258789 330.5 122.4000015258789 Q 328 124.4000015258789 325 127.9000015258789 Q 322 131.4000015258789 319.5 134.4000015258789 Q 317 137.4000015258789 313 141.9000015258789 Q 309 146.4000015258789 303.5 153.4000015258789 Q 298 160.4000015258789 291 168.4000015258789 Q 284 176.4000015258789 273 191.4000015258789 Q 262 206.4000015258789 255 216.4000015258789 Q 248 226.4000015258789 242 236.4000015258789 Q 236 246.4000015258789 232 254.9000015258789 Q 228 263.4000015258789 225 269.9000015258789 Q 222 276.4000015258789 221 280.9000015258789 Q 220 285.4000015258789 219.5 285.9000015258789 Q 219 286.4000015258789 219.5 285.9000015258789 Q 220 285.4000015258789 224 280.4000015258789 Q 228 275.4000015258789 231 271.4000015258789 Q 234 267.4000015258789 245 256.9000015258789 Q 256 246.4000015258789 266 240.4000015258789 Q 276 234.4000015258789 284 231.9000015258789 Q 292 229.4000015258789 296 228.9000015258789 Q 300 228.4000015258789 304 229.4000015258789 Q 308 230.4000015258789 312.5 237.4000015258789 Q 317 244.4000015258789 323.5 256.4000015258789 Q 330 268.4000015258789 336 283.4000015258789 Q 342 298.4000015258789 346 311.4000015258789 Q 350 324.4000015258789 353 332.4000015258789 Q 356 340.4000015258789 356 342.4000015258789 Q 356 344.4000015258789 356 344.9000015258789 Q 356 345.4000015258789 349 341.4000015258789 Q 342 337.4000015258789 335 330.4000015258789 Q 328 323.4000015258789 320 314.9000015258789 Q 312 306.4000015258789 303.5 294.4000015258789 Q 295 282.4000015258789 285 264.4000015258789 Q 275 246.4000015258789 268.5 224.4000015258789 Q 262 202.4000015258789 258 175.4000015258789 Q 254 148.4000015258789 253 128.4000015258789 Q 252 108.4000015258789 252 90.4000015258789 Q 252 72.4000015258789 252 59.900001525878906 Q 252 47.400001525878906 252 42.900001525878906 Q 252 38.400001525878906 252 41.400001525878906 Q 252 44.400001525878906 252 47.400001525878906 Q 252 50.400001525878906 252 52.400001525878906 Q 252 54.400001525878906 252.5 54.400001525878906 Q 253 54.400001525878906 254.5 56.900001525878906 Q 256 59.400001525878906 259.5 67.4000015258789 Q 263 75.4000015258789 269.5 88.9000015258789 Q 276 102.4000015258789 284 120.4000015258789 Q 292 138.4000015258789 302 157.9000015258789 Q 312 177.4000015258789 321.5 191.9000015258789 Q 331 206.4000015258789 339 216.4000015258789 Q 347 226.4000015258789 353.5 231.4000015258789 Q 360 236.4000015258789 364 237.9000015258789 Q 368 239.4000015258789 368.5 239.4000015258789 Q 369 239.4000015258789 369 231.9000015258789 Q 369 224.4000015258789 370 219.4000015258789 Q 371 214.4000015258789 372.5 195.4000015258789 Q 374 176.4000015258789 374 163.4000015258789 Q 374 150.4000015258789 373.5 144.4000015258789 Q 373 138.4000015258789 372.5 126.4000015258789 Q 372 114.4000015258789 370 108.9000015258789 Q 368 103.4000015258789 367 102.9000015258789 L 365.99 102.3900015258789" stroke-linecap="round"/>
</g>
		<g transform="matrix(1 0 0 1 131.676572875254 171.340406922109)">
<path style="stroke: rgb(0,0,0); stroke-width: 10; stroke-dasharray: none; stroke-linecap: round; stroke-dashoffset: 0; stroke-linejoin: round; stroke-miterlimit: 10; fill: none; fill-rule: nonzero; opacity: 1;" transform=" translate(-402.171572875254, -425)" d="M 397.99 381.99 Q 398 382 397.5 383 Q 397 384 397.5 387.5 Q 398 391 398 393.5 Q 398 396 398.5 399 Q 399 402 399 404 Q 399 406 399.5 408.5 Q 400 411 400 412 Q 400 413 400 414 Q 400 415 402 411.5 Q 404 408 405.5 403.5 Q 407 399 408.5 396.5 Q 410 394 410.5 393 Q 411 392 411.5 392 Q 412 392 412 395.5 Q 412 399 412.5 402.5 Q 413 406 413.5 410 Q 414 414 415.5 418.5 Q 417 423 417 423.5 Q 417 424 417.5 424.5 Q 418 425 418.5 425 Q 419 425 421.5 423.5 Q 424 422 425.5 421 Q 427 420 427.5 420 Q 428 420 428 422 Q 428 424 427.5 427 Q 427 430 421.5 432.5 Q 416 435 411.5 437 Q 407 439 400.5 441 Q 394 443 389 444 Q 384 445 381 445.5 Q 378 446 377 446.5 Q 376 447 378 448.5 Q 380 450 385.5 453 Q 391 456 397.5 458.5 Q 404 461 408 462.5 Q 412 464 413 465 Q 414 466 414 467 L 414 468.01" stroke-linecap="round"/>
</g>
		<g transform="matrix(1 0 0 1 -108.5625 25.835406922109)">
<path style="stroke: rgb(0,0,0); stroke-width: 10; stroke-dasharray: none; stroke-linecap: round; stroke-dashoffset: 0; stroke-linejoin: round; stroke-miterlimit: 10; fill: none; fill-rule: nonzero; opacity: 1;" transform=" translate(-161.9325, -279.495)" d="M 190 241.99 Q 190 242 190 243.5 Q 190 245 190 248.5 Q 190 252 193 260.5 Q 196 269 199 277.5 Q 202 286 204.5 293 Q 207 300 207.5 302 Q 208 304 208.5 308 Q 209 312 209.5 313.5 Q 210 315 210 316 Q 210 317 210.5 317 Q 211 317 210.5 315.5 Q 210 314 205.5 306 Q 201 298 196.5 290 Q 192 282 186.5 275 Q 181 268 175.5 262 Q 170 256 167 253 Q 164 250 162.5 249 Q 161 248 160.5 248 Q 160 248 158.5 252 Q 157 256 156 262.5 Q 155 269 154 276.5 Q 153 284 152 289 Q 151 294 150 295 Q 149 296 148 296 Q 147 296 146 296 Q 145 296 143.5 294.5 Q 142 293 141 291.5 Q 140 290 138.5 288.5 Q 137 287 134.5 285.5 Q 132 284 129 284 Q 126 284 123 284 Q 120 284 118 286 Q 116 288 115 289.5 Q 114 291 113.5 293 L 112.99 295.01" stroke-linecap="round"/>
</g>
		<g transform="matrix(1 0 0 1 28.51 93.840406922109)">
<path style="stroke: rgb(0,0,0); stroke-width: 10; stroke-dasharray: none; stroke-linecap: round; stroke-dashoffset: 0; stroke-linejoin: round; stroke-miterlimit: 10; fill: none; fill-rule: nonzero; opacity: 1;" transform=" translate(-299.005, -347.5)" d="M 334.01 325.99 Q 334 326 330 327 Q 326 328 319 331.5 Q 312 335 303.5 338 Q 295 341 286.5 344 Q 278 347 273 350 Q 268 353 266 354.5 Q 264 356 264 356.5 Q 264 357 267 358.5 Q 270 360 274 360 Q 278 360 285 359.5 Q 292 359 296.5 357 Q 301 355 301 356 Q 301 357 301 360.5 Q 301 364 301 366.5 L 301 369.01" stroke-linecap="round"/>
</g>
		<g transform="matrix(1 0 0 1 61.01 -34.264591552012)">
<path style="stroke: rgb(0,0,0); stroke-width: 10; stroke-dasharray: none; stroke-linecap: round; stroke-dashoffset: 0; stroke-linejoin: round; stroke-miterlimit: 10; fill: none; fill-rule: nonzero; opacity: 1;" transform=" translate(-331.505, -219.395001525879)" d="M 374.01 128.39000152587892 Q 374 128.4000015258789 373.5 129.9000015258789 Q 373 131.4000015258789 369 133.4000015258789 Q 365 135.4000015258789 360.5 140.4000015258789 Q 356 145.4000015258789 353 147.9000015258789 Q 350 150.4000015258789 345 154.9000015258789 Q 340 159.4000015258789 336.5 162.4000015258789 Q 333 165.4000015258789 329 171.4000015258789 Q 325 177.4000015258789 320.5 183.9000015258789 Q 316 190.4000015258789 312.5 196.4000015258789 Q 309 202.4000015258789 305 209.4000015258789 Q 301 216.4000015258789 296.5 226.4000015258789 Q 292 236.4000015258789 290.5 245.4000015258789 Q 289 254.4000015258789 289 264.4000015258789 Q 289 274.4000015258789 289 282.9000015258789 Q 289 291.4000015258789 289 297.4000015258789 Q 289 303.4000015258789 290 304.9000015258789 Q 291 306.4000015258789 291.5 307.9000015258789 Q 292 309.4000015258789 294.5 309.9000015258789 Q 297 310.4000015258789 300 310.4000015258789 Q 303 310.4000015258789 305 309.9000015258789 Q 307 309.4000015258789 309 306.9000015258789 Q 311 304.4000015258789 312.5 301.4000015258789 Q 314 298.4000015258789 315 294.4000015258789 Q 316 290.4000015258789 318 285.9000015258789 Q 320 281.4000015258789 321.5 278.9000015258789 Q 323 276.4000015258789 324 273.4000015258789 Q 325 270.4000015258789 326.5 268.9000015258789 Q 328 267.4000015258789 328 265.9000015258789 Q 328 264.4000015258789 328.5 263.9000015258789 Q 329 263.4000015258789 330 262.9000015258789 Q 331 262.4000015258789 332.5 261.4000015258789 Q 334 260.4000015258789 337 259.9000015258789 Q 340 259.4000015258789 341 258.9000015258789 Q 342 258.4000015258789 343 257.4000015258789 Q 344 256.4000015258789 346 256.4000015258789 Q 348 256.4000015258789 349.5 258.4000015258789 Q 351 260.4000015258789 352.5 264.4000015258789 Q 354 268.4000015258789 354.5 269.4000015258789 Q 355 270.4000015258789 355.5 271.4000015258789 Q 356 272.4000015258789 356.5 272.9000015258789 Q 357 273.4000015258789 358 274.4000015258789 L 359.01 275.4100015258789" stroke-linecap="round"/>
</g>
</g>
</g>

</mask>
</defs>
<g transform="matrix(1 0 0 1 10 -55)" mask="url(#CLIPPATH_12)">
<circle style="stroke: none; stroke-width: 1; stroke-dasharray: none; stroke-linecap: butt; stroke-dashoffset: 0; stroke-linejoin: miter; stroke-miterlimit: 4; fill: rgb(0,128,0); fill-rule: nonzero; opacity: 1;" cx="0" cy="0" r="75"/>
</g>
</g>
</g>
<defs>
<mask id="CLIPPATH_13">
<g transform="matrix(1 0 0 1 -22.395127545216 0)">
<g style="">
		<g transform="matrix(1 0 0 1 22.395127545216 0)" ><!--clip-path="url(#CLIPPATH_14)"-->
<clipPath id="CLIPPATH_14">
	<circle transform="matrix(1 0 0 1 0 0)" cx="0" cy="0" r="200"/>
</clipPath>
<rect style="stroke: none; stroke-width: 1; stroke-dasharray: none; stroke-linecap: butt; stroke-dashoffset: 0; stroke-linejoin: miter; stroke-miterlimit: 4; fill: rgb(255,255,255); fill-rule: nonzero; opacity: 1;" x="-183.5" y="-275" rx="0" ry="0" width="367" height="550"/>
</g>
		<g transform="matrix(3.464101615138 -2 2 3.464101615138 -3.582323350226 -19.535524615177)">
<path style="stroke: rgb(0,0,0); stroke-width: 10; stroke-dasharray: none; stroke-linecap: round; stroke-dashoffset: 0; stroke-linejoin: round; stroke-miterlimit: 10; fill: none; fill-rule: nonzero; opacity: 1;" transform=" translate(-402.171572875254, -425)" d="M 397.99 381.99 Q 398 382 397.5 383 Q 397 384 397.5 387.5 Q 398 391 398 393.5 Q 398 396 398.5 399 Q 399 402 399 404 Q 399 406 399.5 408.5 Q 400 411 400 412 Q 400 413 400 414 Q 400 415 402 411.5 Q 404 408 405.5 403.5 Q 407 399 408.5 396.5 Q 410 394 410.5 393 Q 411 392 411.5 392 Q 412 392 412 395.5 Q 412 399 412.5 402.5 Q 413 406 413.5 410 Q 414 414 415.5 418.5 Q 417 423 417 423.5 Q 417 424 417.5 424.5 Q 418 425 418.5 425 Q 419 425 421.5 423.5 Q 424 422 425.5 421 Q 427 420 427.5 420 Q 428 420 428 422 Q 428 424 427.5 427 Q 427 430 421.5 432.5 Q 416 435 411.5 437 Q 407 439 400.5 441 Q 394 443 389 444 Q 384 445 381 445.5 Q 378 446 377 446.5 Q 376 447 378 448.5 Q 380 450 385.5 453 Q 391 456 397.5 458.5 Q 404 461 408 462.5 Q 412 464 413 465 Q 414 466 414 467 L 414 468.01" stroke-linecap="round"/>
</g>
</g>
</g>

</mask>
</defs>
<g transform="matrix(0.216506350946 0.125 -0.125 0.216506350946 405.353915398611 432.47674651018)" mask="url(#CLIPPATH_13)">
	<image style="stroke: none; stroke-width: 0; stroke-dasharray: none; stroke-linecap: butt; stroke-dashoffset: 0; stroke-linejoin: miter; stroke-miterlimit: 4; fill: rgb(0,0,0); fill-rule: nonzero; opacity: 1;" xlink:href="https://ip.webmasterapi.com/api/imageproxy/http://fabricjs.com/assets/mononoke.jpg" x="-183.5" y="-275" width="367" height="550"/>
</g>
<defs>
<mask id="CLIPPATH_15">
<g transform="matrix(1 0 0 1 0 0)">
<g style="">
		<g transform="matrix(1 0 0 1 0 0)">
<rect style="stroke: none; stroke-width: 1; stroke-dasharray: none; stroke-linecap: butt; stroke-dashoffset: 0; stroke-linejoin: miter; stroke-miterlimit: 4; fill: rgb(255,255,255); fill-rule: nonzero; opacity: 1;" x="-250" y="-250" rx="0" ry="0" width="500" height="500"/>
</g>
		<g transform="matrix(1 0 0 1 -158.995 -84.5)">
<path style="stroke: rgb(0,0,0); stroke-width: 10; stroke-dasharray: none; stroke-linecap: round; stroke-dashoffset: 0; stroke-linejoin: round; stroke-miterlimit: 10; fill: none; fill-rule: nonzero; opacity: 1;" transform=" translate(-91.505, -166)" d="M 175.01 25.99 Q 175 26 174.5 28 Q 174 30 173.5 38.5 Q 173 47 169.5 61.5 Q 166 76 162 85 Q 158 94 154 100 Q 150 106 146.5 109.5 Q 143 113 142 114 Q 141 115 140.5 112 Q 140 109 138 100 Q 136 91 133.5 77.5 Q 131 64 127.5 56.5 Q 124 49 122 46.5 Q 120 44 119.5 44 Q 119 44 117.5 46.5 Q 116 49 114.5 55.5 Q 113 62 109.5 73.5 Q 106 85 103.5 96 Q 101 107 98.5 112.5 Q 96 118 94 118 Q 92 118 90 117.5 Q 88 117 83 112.5 Q 78 108 73.5 104.5 Q 69 101 66.5 99 Q 64 97 63 97 Q 62 97 61.5 97 Q 61 97 60.5 98 Q 60 99 58 106 Q 56 113 54.5 126.5 Q 53 140 52.5 155.5 Q 52 171 52 186.5 Q 52 202 55.5 211 Q 59 220 59.5 222 Q 60 224 60.5 224 Q 61 224 58.5 224 Q 56 224 49 227.5 Q 42 231 31 241.5 Q 20 252 14 262 Q 8 272 8 272.5 Q 8 273 8 273.5 Q 8 274 9 274.5 Q 10 275 13.5 275 Q 17 275 23 275 Q 29 275 31.5 275 Q 34 275 34.5 275 Q 35 275 37 274.5 Q 39 274 42 274 Q 45 274 52.5 274 Q 60 274 68 277 Q 76 280 80 281.5 Q 84 283 84 283.5 Q 84 284 81.5 286.5 Q 79 289 77.5 291.5 Q 76 294 74.5 295 Q 73 296 73 296.5 Q 73 297 73 298.5 Q 73 300 74.5 302 Q 76 304 77.5 304.5 Q 79 305 81.5 305 Q 84 305 84 305.5 L 84 306.01" stroke-linecap="round"/>
</g>
		<g transform="matrix(1 0 0 1 -88.5675 28.995)">
<path style="stroke: rgb(0,0,0); stroke-width: 10; stroke-dasharray: none; stroke-linecap: round; stroke-dashoffset: 0; stroke-linejoin: round; stroke-miterlimit: 10; fill: none; fill-rule: nonzero; opacity: 1;" transform=" translate(-161.9325, -279.495)" d="M 190 241.99 Q 190 242 190 243.5 Q 190 245 190 248.5 Q 190 252 193 260.5 Q 196 269 199 277.5 Q 202 286 204.5 293 Q 207 300 207.5 302 Q 208 304 208.5 308 Q 209 312 209.5 313.5 Q 210 315 210 316 Q 210 317 210.5 317 Q 211 317 210.5 315.5 Q 210 314 205.5 306 Q 201 298 196.5 290 Q 192 282 186.5 275 Q 181 268 175.5 262 Q 170 256 167 253 Q 164 250 162.5 249 Q 161 248 160.5 248 Q 160 248 158.5 252 Q 157 256 156 262.5 Q 155 269 154 276.5 Q 153 284 152 289 Q 151 294 150 295 Q 149 296 148 296 Q 147 296 146 296 Q 145 296 143.5 294.5 Q 142 293 141 291.5 Q 140 290 138.5 288.5 Q 137 287 134.5 285.5 Q 132 284 129 284 Q 126 284 123 284 Q 120 284 118 286 Q 116 288 115 289.5 Q 114 291 113.5 293 L 112.99 295.01" stroke-linecap="round"/>
</g>
		<g transform="matrix(1 0 0 1 48.505 97)">
<path style="stroke: rgb(0,0,0); stroke-width: 10; stroke-dasharray: none; stroke-linecap: round; stroke-dashoffset: 0; stroke-linejoin: round; stroke-miterlimit: 10; fill: none; fill-rule: nonzero; opacity: 1;" transform=" translate(-299.005, -347.5)" d="M 334.01 325.99 Q 334 326 330 327 Q 326 328 319 331.5 Q 312 335 303.5 338 Q 295 341 286.5 344 Q 278 347 273 350 Q 268 353 266 354.5 Q 264 356 264 356.5 Q 264 357 267 358.5 Q 270 360 274 360 Q 278 360 285 359.5 Q 292 359 296.5 357 Q 301 355 301 356 Q 301 357 301 360.5 Q 301 364 301 366.5 L 301 369.01" stroke-linecap="round"/>
</g>
</g>
</g>

</mask>
</defs>
<!--<g transform="matrix(1 0 0 1 250.5 250.5)" mask="url(#CLIPPATH_15)">
<rect style="stroke: none; stroke-width: 1; stroke-dasharray: none; stroke-linecap: butt; stroke-dashoffset: 0; stroke-linejoin: miter; stroke-miterlimit: 4; fill: rgb(0,0,255); fill-opacity: 0.4; fill-rule: nonzero; opacity: 1;" x="-250" y="-250" rx="0" ry="0" width="500" height="500"/>
</g>-->
</svg>